<svg width="7151" height="2071" viewBox="0 0 7151 2071" fill="none" xmlns="http://www.w3.org/2000/svg">
<g clip-path="url(#clip0_4_73)">
<path fill-rule="evenodd" clip-rule="evenodd" d="M7151 1021.62C7151 1404.17 6944.75 1737.61 6639.43 1912.68C7007.38 1141.2 6551.25 704.295 6205.46 778.377C6224.54 492.158 6735.56 407.876 7019.88 677.941C7111.39 764.864 7151 894.107 7151 1021.62ZM6148.9 0C6493.6 0 6797.65 177.431 6977.98 447.596C6419.55 106.169 5876.8 505.117 5938 944.432C5515.2 500.681 5891.16 34.1084 6058.97 4.05767C6088.59 1.37173 6118.59 0 6148.9 0ZM5181.91 752.566C5254.91 479.249 5436.42 251.532 5676.35 120.493C5482.28 389.928 5423.1 944.433 6010.96 1179.54C5794.7 1226.71 5355.02 1117.38 5386.11 597.239C5292.03 732.736 5254.19 1084.37 5644.87 1262.5C5511.91 1270.5 5252.36 1214 5178.38 944.18C5161.25 881.671 5165.18 815.191 5181.91 752.566ZM5151 1110.78C5458.06 1499.83 6116.15 1425.67 6244.53 1132C6402.68 1634.11 5355.54 1845.82 5151 1110.78ZM6007.44 1999.6C5882.69 1996.09 5758.96 1964.34 5649.9 1902.5C5495.15 1814.74 5399.65 1708.67 5361.02 1648.58C6343.18 1995.34 6530.32 1272.63 6423.03 1021.62C6612.02 1179.54 6618.02 1473.93 6497.39 1740.86C6407.15 1940.56 6229.51 2005.84 6007.44 1999.6ZM6908.63 1379.16C6959.27 1160.36 6839.54 806.728 6539.5 715.089C6764.17 642.634 7163.18 867.097 6908.63 1379.16Z" fill="#0151FE"/>
</g>
<path d="M4935.56 376.129V1692.49H4621.25V376.129H4935.56Z" fill="#0151FE"/>
<path d="M3735.21 2062.72C3697.5 2062.72 3661.94 2059.72 3628.51 2053.72C3595.09 2048.15 3566.38 2040.65 3542.39 2031.22L3611.8 1803.05C3642.66 1813.33 3670.51 1819.33 3695.36 1821.04C3720.64 1822.76 3742.28 1818.69 3760.28 1808.83C3778.7 1799.4 3792.85 1782.48 3802.7 1758.05L3814.91 1728.49L3463.97 705.219H3793.06L3974.96 1409.68H3985.24L4169.71 705.219H4500.73L4128.58 1786.98C4110.58 1840.97 4085.08 1888.53 4052.09 1929.67C4019.52 1971.23 3977.32 2003.8 3925.47 2027.37C3874.05 2050.93 3810.63 2062.72 3735.21 2062.72Z" fill="#0151FE"/>
<path d="M3382.66 705.22V936.612H2759.83V705.22H3382.66ZM2890.31 468.686H3204.61V1382.04C3204.61 1401.32 3207.61 1416.96 3213.61 1428.96C3220.04 1440.53 3229.25 1448.89 3241.25 1454.03C3253.25 1458.74 3267.6 1461.1 3284.32 1461.1C3296.31 1461.1 3308.96 1460.03 3322.24 1457.89C3335.95 1455.32 3346.24 1453.17 3353.09 1451.46L3400.66 1678.35C3385.66 1682.64 3364.45 1687.99 3337.02 1694.42C3310.03 1700.85 3277.67 1704.92 3239.97 1706.63C3166.26 1710.06 3103.06 1701.49 3050.35 1680.92C2998.08 1659.93 2958.01 1627.36 2930.16 1583.22C2902.73 1539.09 2889.45 1483.6 2890.31 1416.75V468.686Z" fill="#0151FE"/>
<path d="M2311.03 1692.49V705.22H2625.34V1692.49H2311.03ZM2468.5 590.167C2424.37 590.167 2386.45 575.598 2354.74 546.46C2323.03 516.893 2307.17 481.327 2307.17 439.762C2307.17 398.626 2323.03 363.488 2354.74 334.35C2386.45 304.783 2424.37 290 2468.5 290C2513.07 290 2550.99 304.783 2582.27 334.35C2613.98 363.488 2629.84 398.626 2629.84 439.762C2629.84 481.327 2613.98 516.893 2582.27 546.46C2550.99 575.598 2513.07 590.167 2468.5 590.167Z" fill="#0151FE"/>
<path d="M2190.51 705.219L1851.77 1692.49H1491.83L1153.74 705.219H1484.76L1666.66 1385.25H1676.95L1859.49 705.219H2190.51Z" fill="#0151FE"/>
<path d="M749.453 770.78C745.168 723.645 726.1 687.008 692.248 660.869C658.825 634.302 611.046 621.018 548.913 621.018C507.777 621.018 473.497 626.374 446.072 637.087C418.648 647.799 398.08 662.583 384.368 681.437C370.656 699.863 363.585 721.074 363.157 745.07C362.3 764.781 366.156 782.135 374.727 797.133C383.725 812.131 396.58 825.414 413.292 836.984C430.432 848.125 451 857.981 474.996 866.551C498.993 875.121 525.988 882.62 555.984 889.047L669.109 914.757C734.241 928.898 791.661 947.752 841.367 971.32C891.502 994.888 933.496 1022.95 967.347 1055.52C1001.63 1088.09 1027.55 1125.58 1045.12 1168C1062.69 1210.42 1071.69 1257.99 1072.12 1310.69C1071.69 1393.82 1050.69 1465.17 1009.13 1524.73C967.562 1584.29 907.785 1629.93 829.798 1661.64C752.238 1693.35 658.61 1709.2 548.913 1709.2C438.788 1709.2 342.803 1692.71 260.959 1659.71C179.115 1626.72 115.482 1576.58 70.0604 1509.31C24.639 1442.03 1.28551 1356.97 0 1254.13H304.666C307.237 1296.55 318.593 1331.91 338.732 1360.19C358.872 1388.47 386.51 1409.89 421.648 1424.46C457.214 1439.03 498.35 1446.32 545.057 1446.32C587.907 1446.32 624.33 1440.53 654.325 1428.96C684.749 1417.39 708.103 1401.32 724.386 1380.76C740.669 1360.19 749.025 1336.62 749.453 1310.05C749.025 1285.2 741.312 1263.99 726.314 1246.42C711.316 1228.42 688.177 1213 656.896 1200.14C626.044 1186.86 586.622 1174.64 538.629 1163.5L401.08 1131.37C287.098 1105.23 197.326 1063.02 131.765 1004.74C66.2038 946.038 33.6375 866.765 34.0661 766.924C33.6375 685.508 55.4912 614.162 99.6271 552.886C143.763 491.61 204.825 443.832 282.812 409.551C360.8 375.271 449.715 358.131 549.556 358.131C651.54 358.131 740.026 375.485 815.014 410.194C890.431 444.474 948.922 492.681 990.487 554.814C1032.05 616.947 1053.26 688.936 1054.12 770.78H749.453Z" fill="#0151FE"/>
<defs>
<clipPath id="clip0_4_73">
<rect width="2000" height="2000" fill="white" transform="translate(5151)"/>
</clipPath>
</defs>
</svg>
