<svg width="2000" height="2000" viewBox="0 0 2000 2000" fill="none" xmlns="http://www.w3.org/2000/svg">
<g clip-path="url(#clip0_4_85)">
<path fill-rule="evenodd" clip-rule="evenodd" d="M2000 1021.62C2000 1404.17 1793.75 1737.61 1488.43 1912.68C1856.38 1141.2 1400.25 704.295 1054.46 778.377C1073.54 492.158 1584.56 407.876 1868.88 677.941C1960.39 764.864 2000 894.107 2000 1021.62ZM997.897 0C1342.6 0 1646.65 177.431 1826.98 447.596C1268.55 106.169 725.796 505.117 787.004 944.432C364.203 500.681 740.155 34.1084 907.97 4.05767C937.594 1.37173 967.588 0 997.897 0ZM30.9096 752.566C103.908 479.249 285.421 251.532 525.346 120.493C331.278 389.928 272.101 944.433 859.961 1179.54C643.701 1226.71 204.018 1117.38 235.115 597.239C141.032 732.736 103.186 1084.37 493.872 1262.5C360.907 1270.5 101.357 1214 27.3845 944.18C10.247 881.671 14.1835 815.191 30.9096 752.566ZM0 1110.78C307.056 1499.83 965.155 1425.67 1093.53 1132C1251.68 1634.11 204.542 1845.82 0 1110.78ZM856.441 1999.6C731.692 1996.09 607.962 1964.34 498.902 1902.5C344.154 1814.74 248.648 1708.67 210.023 1648.58C1192.18 1995.34 1379.32 1272.63 1272.03 1021.62C1461.02 1179.54 1467.02 1473.93 1346.39 1740.86C1256.15 1940.56 1078.51 2005.84 856.441 1999.6ZM1757.63 1379.16C1808.27 1160.36 1688.54 806.728 1388.5 715.089C1613.17 642.634 2012.18 867.097 1757.63 1379.16Z" fill="#0151FE"/>
</g>
<defs>
<clipPath id="clip0_4_85">
<rect width="2000" height="2000" fill="white"/>
</clipPath>
</defs>
</svg>
