<svg width="66" height="66" viewBox="0 0 66 66" fill="none" xmlns="http://www.w3.org/2000/svg">
<g filter="url(#filter0_d_50_101)">
<rect x="4.17134" y="2" width="57.3706" height="57.3494" rx="8" fill="#0151FE" shape-rendering="crispEdges"/>
<path d="M18.1713 40.1689V27.8311C18.1713 26.8198 18.9911 26 20.0024 26H43.3402C44.3515 26 45.1713 26.8198 45.1713 27.8311V40.1689C45.1713 41.1802 44.3515 42 43.3402 42H20.0024C18.9911 42 18.1713 41.1802 18.1713 40.1689Z" stroke="#EDEDED" stroke-width="1.7" stroke-linecap="round"/>
<path d="M28.1713 35L29.4892 36.3179C29.8659 36.6946 30.4767 36.6946 30.8535 36.3179L36.1713 31" stroke="#83CBFF" stroke-width="1.7" stroke-linecap="round"/>
<path d="M21.1713 26L21.1713 23.8311C21.1713 22.8198 21.9911 22 23.0024 22H40.3402C41.3515 22 42.1713 22.8198 42.1713 23.8311V26" stroke="#EDEDED" stroke-width="1.7" stroke-linecap="round"/>
<path d="M24.1713 22V19.6556C24.1713 18.7413 24.9126 18 25.827 18H37.5157C38.4301 18 39.1713 18.7413 39.1713 19.6556V22" stroke="#EDEDED" stroke-width="1.7" stroke-linecap="round"/>
</g>
<defs>
<filter id="filter0_d_50_101" x="0.171341" y="0" width="65.3706" height="65.3494" filterUnits="userSpaceOnUse" color-interpolation-filters="sRGB">
<feFlood flood-opacity="0" result="BackgroundImageFix"/>
<feColorMatrix in="SourceAlpha" type="matrix" values="0 0 0 0 0 0 0 0 0 0 0 0 0 0 0 0 0 0 127 0" result="hardAlpha"/>
<feOffset dy="2"/>
<feGaussianBlur stdDeviation="2"/>
<feComposite in2="hardAlpha" operator="out"/>
<feColorMatrix type="matrix" values="0 0 0 0 0.0375 0 0 0 0 0.0375 0 0 0 0 0.0375 0 0 0 0.25 0"/>
<feBlend mode="normal" in2="BackgroundImageFix" result="effect1_dropShadow_50_101"/>
<feBlend mode="normal" in="SourceGraphic" in2="effect1_dropShadow_50_101" result="shape"/>
</filter>
</defs>
</svg>
